<svg width="40" height="40" viewBox="0 0 40 40" fill="none" xmlns="http://www.w3.org/2000/svg">
<path d="M26.6667 15.8333H23.3333V14.1667L21.6667 12.5H18.3333L16.6667 14.1667V15.8333H13.3333C12.4167 15.8333 11.6667 16.5833 11.6667 17.5V21.6667C11.6667 22.2917 12 22.8167 12.5 23.1083V25.8333C12.5 26.7583 13.2417 27.5 14.1667 27.5H25.8333C26.7583 27.5 27.5 26.7583 27.5 25.8333V23.1C27.9917 22.8083 28.3333 22.275 28.3333 21.6667V17.5C28.3333 16.5833 27.5833 15.8333 26.6667 15.8333ZM18.3333 14.1667H21.6667V15.8333H18.3333V14.1667ZM13.3333 17.5H26.6667V21.6667H22.5V19.1667H17.5V21.6667H13.3333V17.5ZM20.8333 22.5H19.1667V20.8333H20.8333V22.5ZM25.8333 25.8333H14.1667V23.3333H17.5V24.1667H22.5V23.3333H25.8333V25.8333Z" fill="white"/>
</svg>
