<svg width="40" height="40" viewBox="0 0 40 40" fill="none" xmlns="http://www.w3.org/2000/svg">
<path d="M20 21.6667C17.75 21.6667 13.3333 22.75 13.3333 25V26.6667H26.6667V25C26.6667 22.75 22.25 21.6667 20 21.6667ZM15 25C15.1667 24.5 17.1667 23.5833 19.1667 23.4167L18.3333 25H15ZM21.6667 25L20.8333 23.4167C22.8333 23.6667 24.8333 24.5 25 25H21.6667ZM20 20C21.8333 20 23.3333 18.5 23.3333 16.6667C23.3333 14.8333 21.8333 13.3333 20 13.3333C18.1667 13.3333 16.6667 14.8333 16.6667 16.6667C16.6667 18.5 18.1667 20 20 20ZM20 15C20.9167 15 21.6667 15.75 21.6667 16.6667C21.6667 17.5833 20.9167 18.3333 20 18.3333C19.0833 18.3333 18.3333 17.5833 18.3333 16.6667C18.3333 15.75 19.0833 15 20 15Z" fill="white"/>
</svg>
