<svg width="40" height="40" viewBox="0 0 40 40" fill="none" xmlns="http://www.w3.org/2000/svg">
<path d="M22.5 20H23.75V23.5417L26.1333 24.95L25.5083 25.9667L22.5 24.1667V20ZM23.3333 17.5C23.9083 17.5 24.475 17.5834 25 17.7417V13.9167L22.5 14.8834V17.5584C22.775 17.5 23.05 17.5 23.3333 17.5ZM29.1667 23.3334C29.1667 24.8804 28.5521 26.3642 27.4581 27.4581C26.3642 28.5521 24.8804 29.1667 23.3333 29.1667C20.8333 29.1667 18.6667 27.5667 17.85 25.3334L16.6667 24.9167L12.2167 26.6417L12.0833 26.6667C11.9728 26.6667 11.8668 26.6228 11.7887 26.5446C11.7106 26.4665 11.6667 26.3605 11.6667 26.25V13.65C11.6667 13.4584 11.7917 13.3084 11.9667 13.25L16.6667 11.6667L21.6667 13.4167L26.1167 11.6917L26.25 11.6667C26.3605 11.6667 26.4665 11.7106 26.5446 11.7887C26.6228 11.8669 26.6667 11.9728 26.6667 12.0834V18.5417C28.175 19.5834 29.1667 21.35 29.1667 23.3334ZM17.5 23.3334C17.5 21.0084 18.8583 19 20.8333 18.0584V14.8917L17.5 13.725V23.4417C17.5 23.4084 17.5 23.3667 17.5 23.3334ZM23.3333 19.1667C22.2283 19.1667 21.1685 19.6057 20.3871 20.3871C19.6057 21.1685 19.1667 22.2283 19.1667 23.3334C19.1667 24.4384 19.6057 25.4982 20.3871 26.2796C21.1685 27.061 22.2283 27.5 23.3333 27.5C24.4384 27.5 25.4982 27.061 26.2796 26.2796C27.061 25.4982 27.5 24.4384 27.5 23.3334C27.5 22.2283 27.061 21.1685 26.2796 20.3871C25.4982 19.6057 24.4384 19.1667 23.3333 19.1667ZM13.3333 14.55V24.425L15.8333 23.4584V13.7084L13.3333 14.55Z" fill="white"/>
</svg>
