<svg width="40" height="40" viewBox="0 0 40 40" fill="none" xmlns="http://www.w3.org/2000/svg">
<path d="M14.2857 12.9762V16.5476L16.8571 18.119L17.4286 17.2619L15.3571 16.0476V12.9762H14.2857Z" fill="white"/>
<path fill-rule="evenodd" clip-rule="evenodd" d="M15 10.8333C12.2143 10.9047 10 13.119 10 15.8333C10 18.619 12.2143 20.8333 15 20.8333C17.7857 20.8333 20 18.619 20 15.8333C20 13.0476 17.7857 10.8333 15 10.8333ZM15 19.4047C13 19.4047 11.4286 17.8333 11.4286 15.8333C11.4286 13.8333 13 12.2619 15 12.2619C17 12.2619 18.5714 13.8333 18.5714 15.8333C18.5714 17.8333 17 19.4047 15 19.4047Z" fill="white"/>
<path fill-rule="evenodd" clip-rule="evenodd" d="M22.5 15.8333H21.6667C21.6667 15.2578 21.5937 14.6993 21.4566 14.1666H24.1667V15.8333H27.5L30 20.8333V25H28.3333C28.3333 26.4166 27.25 27.5 25.8333 27.5C24.4167 27.5 23.3333 26.4166 23.3333 25H18.3333C18.3333 26.4166 17.25 27.5 15.8333 27.5C14.4167 27.5 13.3333 26.4166 13.3333 25H10V20.243C10.4766 20.783 11.0393 21.2452 11.6667 21.6081V23.3333H14C14.4167 22.8333 15.0833 22.5 15.8333 22.5C16.5833 22.5 17.25 22.8333 17.6667 23.3333H22.5V15.8333ZM15.8333 25.8333C15.3333 25.8333 15 25.5 15 25C15 24.5 15.3333 24.1666 15.8333 24.1666C16.3333 24.1666 16.6667 24.5 16.6667 25C16.6667 25.5 16.3333 25.8333 15.8333 25.8333ZM25.8333 25.8333C25.3333 25.8333 25 25.5 25 25C25 24.5 25.3333 24.1666 25.8333 24.1666C26.3333 24.1666 26.6667 24.5 26.6667 25C26.6667 25.5 26.3333 25.8333 25.8333 25.8333ZM24.1667 20.8333V17.5H26.6667L28.3333 20.8333H24.1667Z" fill="white"/>
</svg>
