<svg width="40" height="40" viewBox="0 0 40 40" fill="none" xmlns="http://www.w3.org/2000/svg">
<path d="M26.175 18.6833L24.9917 17.5L22.35 20.1417L21.175 18.9583L20 20.1333L22.35 22.5L26.175 18.6833Z" fill="white"/>
<path d="M14.1667 15.8333H18.3333V17.5H14.1667V15.8333Z" fill="white"/>
<path d="M18.3333 19.1667H14.1667V20.8333H18.3333V19.1667Z" fill="white"/>
<path d="M14.1667 22.5H18.3333V24.1667H14.1667V22.5Z" fill="white"/>
<path fill-rule="evenodd" clip-rule="evenodd" d="M26.6667 12.5H13.3333C12.4167 12.5 11.6667 13.25 11.6667 14.1667V25.8333C11.6667 26.75 12.4167 27.5 13.3333 27.5H26.6667C27.5833 27.5 28.3333 26.75 28.3333 25.8333V14.1667C28.3333 13.25 27.5833 12.5 26.6667 12.5ZM13.3333 25.8333V14.1667H26.6667V25.8333H13.3333Z" fill="white"/>
</svg>
