<svg width="323" height="40" viewBox="0 0 323 40" fill="none" xmlns="http://www.w3.org/2000/svg">
<rect x="0.5" y="0.5" width="322" height="39" rx="3.5" fill="white"/>
<rect x="0.5" y="0.5" width="322" height="39" rx="3.5" stroke="#E0E0E0"/>
<path d="M28.9167 21.6667H28.2583L28.025 21.4417C28.8417 20.4917 29.3333 19.2583 29.3333 17.9167C29.3333 14.925 26.9083 12.5 23.9167 12.5C20.925 12.5 18.5 14.925 18.5 17.9167C18.5 20.9083 20.925 23.3333 23.9167 23.3333C25.2583 23.3333 26.4917 22.8417 27.4417 22.025L27.6667 22.2583V22.9167L31.8333 27.075L33.075 25.8333L28.9167 21.6667ZM23.9167 21.6667C21.8417 21.6667 20.1667 19.9917 20.1667 17.9167C20.1667 15.8417 21.8417 14.1667 23.9167 14.1667C25.9917 14.1667 27.6667 15.8417 27.6667 17.9167C27.6667 19.9917 25.9917 21.6667 23.9167 21.6667Z" fill="#9E9E9E"/>
<path d="M48.298 25.084C47.57 25.084 46.87 24.9673 46.198 24.734C45.5353 24.4913 45.022 24.1833 44.658 23.81L45.064 23.012C45.4093 23.348 45.8713 23.6327 46.45 23.866C47.038 24.09 47.654 24.202 48.298 24.202C48.914 24.202 49.4133 24.1273 49.796 23.978C50.188 23.8193 50.4727 23.6093 50.65 23.348C50.8367 23.0867 50.93 22.7973 50.93 22.48C50.93 22.0973 50.818 21.7893 50.594 21.556C50.3793 21.3227 50.0947 21.1407 49.74 21.01C49.3853 20.87 48.9933 20.7487 48.564 20.646C48.1347 20.5433 47.7053 20.436 47.276 20.324C46.8467 20.2027 46.45 20.044 46.086 19.848C45.7313 19.652 45.442 19.3953 45.218 19.078C45.0033 18.7513 44.896 18.3267 44.896 17.804C44.896 17.3187 45.022 16.8753 45.274 16.474C45.5353 16.0633 45.932 15.7367 46.464 15.494C46.996 15.242 47.6773 15.116 48.508 15.116C49.0587 15.116 49.6047 15.1953 50.146 15.354C50.6873 15.5033 51.154 15.7133 51.546 15.984L51.196 16.81C50.776 16.53 50.328 16.3247 49.852 16.194C49.3853 16.0633 48.9327 15.998 48.494 15.998C47.906 15.998 47.4207 16.0773 47.038 16.236C46.6553 16.3947 46.3707 16.6093 46.184 16.88C46.0067 17.1413 45.918 17.44 45.918 17.776C45.918 18.1587 46.0253 18.4667 46.24 18.7C46.464 18.9333 46.7533 19.1153 47.108 19.246C47.472 19.3767 47.8687 19.4933 48.298 19.596C48.7273 19.6987 49.152 19.8107 49.572 19.932C50.0013 20.0533 50.3933 20.212 50.748 20.408C51.112 20.5947 51.4013 20.8467 51.616 21.164C51.84 21.4813 51.952 21.8967 51.952 22.41C51.952 22.886 51.8213 23.3293 51.56 23.74C51.2987 24.1413 50.8973 24.468 50.356 24.72C49.824 24.9627 49.138 25.084 48.298 25.084ZM57.1213 25.07C56.3559 25.07 55.6839 24.9113 55.1053 24.594C54.5266 24.2673 54.0739 23.824 53.7473 23.264C53.4206 22.6947 53.2573 22.046 53.2573 21.318C53.2573 20.59 53.4113 19.946 53.7193 19.386C54.0366 18.826 54.4659 18.3873 55.0073 18.07C55.5579 17.7433 56.1739 17.58 56.8553 17.58C57.5459 17.58 58.1573 17.7387 58.6893 18.056C59.2306 18.364 59.6553 18.8027 59.9633 19.372C60.2713 19.932 60.4253 20.5807 60.4253 21.318C60.4253 21.3647 60.4206 21.416 60.4113 21.472C60.4113 21.5187 60.4113 21.57 60.4113 21.626H54.0133V20.884H59.8793L59.4873 21.178C59.4873 20.646 59.3706 20.1747 59.1373 19.764C58.9133 19.344 58.6053 19.0173 58.2133 18.784C57.8213 18.5507 57.3686 18.434 56.8553 18.434C56.3513 18.434 55.8986 18.5507 55.4973 18.784C55.0959 19.0173 54.7833 19.344 54.5593 19.764C54.3353 20.184 54.2233 20.6647 54.2233 21.206V21.36C54.2233 21.92 54.3446 22.4147 54.5873 22.844C54.8393 23.264 55.1846 23.5953 55.6233 23.838C56.0713 24.0713 56.5799 24.188 57.1493 24.188C57.5973 24.188 58.0126 24.1087 58.3953 23.95C58.7873 23.7913 59.1233 23.5487 59.4033 23.222L59.9633 23.866C59.6366 24.258 59.2259 24.5567 58.7313 24.762C58.2459 24.9673 57.7093 25.07 57.1213 25.07ZM66.8494 25V23.376L66.8074 23.11V20.394C66.8074 19.7687 66.6301 19.288 66.2754 18.952C65.9301 18.616 65.4121 18.448 64.7214 18.448C64.2454 18.448 63.7928 18.5273 63.3634 18.686C62.9341 18.8447 62.5701 19.0547 62.2714 19.316L61.8234 18.574C62.1968 18.2567 62.6448 18.014 63.1674 17.846C63.6901 17.6687 64.2408 17.58 64.8194 17.58C65.7714 17.58 66.5041 17.818 67.0174 18.294C67.5401 18.7607 67.8014 19.4747 67.8014 20.436V25H66.8494ZM64.3154 25.07C63.7648 25.07 63.2841 24.9813 62.8734 24.804C62.4721 24.6173 62.1641 24.3653 61.9494 24.048C61.7348 23.7213 61.6274 23.348 61.6274 22.928C61.6274 22.5453 61.7161 22.2 61.8934 21.892C62.0801 21.5747 62.3788 21.3227 62.7894 21.136C63.2094 20.94 63.7694 20.842 64.4694 20.842H67.0034V21.584H64.4974C63.7881 21.584 63.2934 21.71 63.0134 21.962C62.7428 22.214 62.6074 22.5267 62.6074 22.9C62.6074 23.32 62.7708 23.656 63.0974 23.908C63.4241 24.16 63.8814 24.286 64.4694 24.286C65.0294 24.286 65.5101 24.16 65.9114 23.908C66.3221 23.6467 66.6208 23.2733 66.8074 22.788L67.0314 23.474C66.8448 23.9593 66.5181 24.3467 66.0514 24.636C65.5941 24.9253 65.0154 25.07 64.3154 25.07ZM70.5012 25V17.65H71.4532V19.652L71.3552 19.302C71.5606 18.742 71.9059 18.3173 72.3912 18.028C72.8766 17.7293 73.4786 17.58 74.1972 17.58V18.546C74.1599 18.546 74.1226 18.546 74.0852 18.546C74.0479 18.5367 74.0106 18.532 73.9732 18.532C73.1986 18.532 72.5919 18.77 72.1532 19.246C71.7146 19.7127 71.4952 20.38 71.4952 21.248V25H70.5012ZM78.9946 25.07C78.2666 25.07 77.6133 24.9113 77.0346 24.594C76.4653 24.2673 76.0173 23.824 75.6906 23.264C75.364 22.6947 75.2006 22.046 75.2006 21.318C75.2006 20.5807 75.364 19.932 75.6906 19.372C76.0173 18.812 76.4653 18.3733 77.0346 18.056C77.6133 17.7387 78.2666 17.58 78.9946 17.58C79.62 17.58 80.1846 17.7013 80.6886 17.944C81.1926 18.1867 81.5893 18.5507 81.8786 19.036L81.1366 19.54C80.8846 19.1667 80.572 18.8913 80.1986 18.714C79.8253 18.5367 79.4193 18.448 78.9806 18.448C78.458 18.448 77.9866 18.5693 77.5666 18.812C77.1466 19.0453 76.8153 19.3767 76.5726 19.806C76.33 20.2353 76.2086 20.7393 76.2086 21.318C76.2086 21.8967 76.33 22.4007 76.5726 22.83C76.8153 23.2593 77.1466 23.5953 77.5666 23.838C77.9866 24.0713 78.458 24.188 78.9806 24.188C79.4193 24.188 79.8253 24.0993 80.1986 23.922C80.572 23.7447 80.8846 23.474 81.1366 23.11L81.8786 23.614C81.5893 24.09 81.1926 24.454 80.6886 24.706C80.1846 24.9487 79.62 25.07 78.9946 25.07ZM87.4739 17.58C88.0713 17.58 88.5939 17.6967 89.0419 17.93C89.4993 18.154 89.8539 18.4993 90.1059 18.966C90.3673 19.4327 90.4979 20.0207 90.4979 20.73V25H89.5039V20.828C89.5039 20.0533 89.3079 19.47 88.9159 19.078C88.5333 18.6767 87.9919 18.476 87.2919 18.476C86.7693 18.476 86.3119 18.5833 85.9199 18.798C85.5373 19.0033 85.2386 19.3067 85.0239 19.708C84.8186 20.1 84.7159 20.576 84.7159 21.136V25H83.7219V14.612H84.7159V19.666L84.5199 19.288C84.7533 18.756 85.1266 18.3407 85.6399 18.042C86.1533 17.734 86.7646 17.58 87.4739 17.58Z" fill="#9E9E9E"/>
</svg>
