<svg width="40" height="40" viewBox="0 0 40 40" fill="none" xmlns="http://www.w3.org/2000/svg">
<path d="M24.5833 20.8333H23.3333V25L26.3417 26.8L26.9667 25.7833L24.5833 24.375V20.8333Z" fill="white"/>
<path fill-rule="evenodd" clip-rule="evenodd" d="M25.0187 18.3948C24.7396 18.3541 24.4542 18.3333 24.1667 18.3333C21.5263 18.3333 19.2955 20.0875 18.5764 22.494C18.4182 23.0239 18.3333 23.5854 18.3333 24.1667C18.3333 25.2379 18.6221 26.2417 19.126 27.1044C20.0676 28.7078 21.7607 29.8263 23.7021 29.9815C23.8555 29.9937 24.0104 30 24.1667 30C24.355 30 24.5423 29.9909 24.7281 29.9729C25.8783 29.8618 26.97 29.4112 27.8636 28.679C28.0119 28.5575 28.1547 28.4282 28.2914 28.2915C28.5039 28.079 28.6983 27.8518 28.8736 27.6124C29.5445 26.6958 29.9361 25.599 29.9928 24.4559C29.9976 24.3598 30 24.2634 30 24.1667C30 23.6318 29.9279 23.1128 29.793 22.6195C29.2612 20.6814 27.7545 19.1467 25.8333 18.575C25.8262 18.5728 25.8191 18.5707 25.8119 18.5686C25.556 18.4925 25.2903 18.4343 25.0187 18.3948ZM21.2204 21.2204C22.0018 20.439 23.0616 20 24.1667 20C25.2717 20 26.3315 20.439 27.1129 21.2204C27.8943 22.0018 28.3333 23.0616 28.3333 24.1667C28.3333 25.2718 27.8943 26.3315 27.1129 27.1129C26.3315 27.8943 25.2717 28.3333 24.1667 28.3333C23.0616 28.3333 22.0018 27.8943 21.2204 27.1129C20.439 26.3315 20 25.2718 20 24.1667C20 23.0616 20.439 22.0018 21.2204 21.2204Z" fill="white"/>
<path d="M13.3333 12.5H26.6667C27.5833 12.5 28.3333 13.25 28.3333 14.1667V17.9296C27.8192 17.5854 27.26 17.3032 26.6667 17.0934V14.1667H13.3333V25.8333H16.8525C16.9851 26.4177 17.186 26.9762 17.4463 27.5H13.3333C12.4167 27.5 11.6667 26.75 11.6667 25.8333V14.1667C11.6667 13.25 12.4167 12.5 13.3333 12.5Z" fill="white"/>
<path d="M16.8525 22.5C16.7309 23.036 16.6667 23.5938 16.6667 24.1667H14.1667V22.5H16.8525Z" fill="white"/>
<path d="M18.3333 19.4522C17.9898 19.8768 17.6916 20.3396 17.4463 20.8333H14.1667V19.1667H18.3333V19.4522Z" fill="white"/>
<path d="M18.3333 15.8333H14.1667V17.5H18.3333V15.8333Z" fill="white"/>
</svg>
