<svg width="40" height="40" viewBox="0 0 40 40" fill="none" xmlns="http://www.w3.org/2000/svg">
<path d="M0 6.4C0 4.15979 0 3.03969 0.435974 2.18404C0.819467 1.43139 1.43139 0.819467 2.18404 0.435974C3.03969 0 4.15979 0 6.4 0H33.6C35.8402 0 36.9603 0 37.816 0.435974C38.5686 0.819467 39.1805 1.43139 39.564 2.18404C40 3.03969 40 4.15979 40 6.4V33.6C40 35.8402 40 36.9603 39.564 37.816C39.1805 38.5686 38.5686 39.1805 37.816 39.564C36.9603 40 35.8402 40 33.6 40H6.4C4.15979 40 3.03969 40 2.18404 39.564C1.43139 39.1805 0.819467 38.5686 0.435974 37.816C0 36.9603 0 35.8402 0 33.6V6.4Z" fill="#EBF4FF"/>
<path d="M19.1667 21.8333L17.3333 20L19.1667 18.1666L18 17L15 20L18 23L19.1667 21.8333ZM22 23L25 20L22 17L20.8333 18.1666L22.6667 20L20.8333 21.8333L22 23ZM25.8333 12.5H22.3333C22 11.5 21.0833 10.8333 20 10.8333C18.9167 10.8333 18 11.5 17.6667 12.5H14.1667C14.0833 12.5 13.9167 12.5 13.8333 12.5C13.5 12.5833 13.25 12.75 13 12.9166C12.8333 13.1666 12.75 13.3333 12.6667 13.5C12.5833 13.75 12.5 13.9166 12.5 14.1666V22.5V23.3333V25.8333C12.5 26.0833 12.5833 26.25 12.6667 26.5C12.75 26.6666 12.9167 26.9166 13 27C13.25 27.25 13.5 27.4166 13.8333 27.4166C13.9167 27.4166 14.0833 27.4166 14.1667 27.4166H25.8333C26.75 27.4166 27.5 26.6666 27.5 25.75V23.25V22.4166V14.1666C27.5 13.25 26.75 12.5 25.8333 12.5ZM20 12.3333C20.3333 12.3333 20.6667 12.5833 20.6667 13C20.6667 13.4166 20.3333 13.5833 20 13.5833C19.6667 13.5833 19.3333 13.3333 19.3333 12.9166C19.3333 12.5 19.6667 12.3333 20 12.3333ZM25.8333 22.5V23.3333V25.8333H14.1667V23.3333V22.5V14.1666H25.8333V22.5Z" fill="#007AFF"/>
</svg>
