<svg width="40" height="24" viewBox="0 0 40 24" fill="none" xmlns="http://www.w3.org/2000/svg">
<path d="M17.5 24.5834C17.5 25.1667 17.6667 25.75 18 26.1667L19.1667 25V28.3334H15.8333L16.75 27.4167C16.1667 26.6667 15.8333 25.6667 15.8333 24.5834C15.8333 22.1667 17.6667 20.25 20 20V21.6667C18.5833 21.9167 17.5 23.1667 17.5 24.5834ZM25 20.8334H21.6667V24.1667L22.8333 23C23.1667 23.5 23.3333 24 23.3333 24.5834C23.3333 26.0834 22.25 27.25 20.8333 27.5V29.1667C23.1667 28.9167 25 27 25 24.5834C25 23.5 24.6667 22.5834 24.0833 21.75L25 20.8334ZM26.1667 15.9167C25.5833 13.0834 23.0833 10.9167 20 10.9167C17.5833 10.9167 15.5 12.25 14.5 14.25C11.9167 14.5 10 16.5834 10 19.1667C10 21.6667 11.8333 23.75 14.1667 24.0834C14.25 23.5 14.3333 23 14.5 22.4167C12.9167 22.25 11.6667 20.8334 11.6667 19.1667C11.6667 17.4167 12.9167 16 14.6667 15.8334L15.5833 15.75L16 14.9167C16.75 13.5 18.25 12.5 20 12.5C22.1667 12.5 24.0833 14.0834 24.5 16.1667L24.75 17.5L26 17.5834C27.3333 17.6667 28.3333 18.75 28.3333 20.0834C28.3333 21.3334 27.4167 22.3334 26.3333 22.5C26.5 23 26.6667 23.5834 26.6667 24.1667C28.5833 23.75 30 22.0834 30 20.0834C30 17.8334 28.25 16 26.1667 15.9167Z" fill="white"/>
</svg>
