<svg width="40" height="40" viewBox="0 0 40 40" fill="none" xmlns="http://www.w3.org/2000/svg">
<path d="M27.5 15H24.1667V13.3333H11.6667C10.75 13.3333 10 14.0833 10 15V24.1666H13.3333C13.3333 25.5833 14.4167 26.6666 15.8333 26.6666C17.25 26.6666 18.3333 25.5833 18.3333 24.1666H23.3333C23.3333 25.5833 24.4167 26.6666 25.8333 26.6666C27.25 26.6666 28.3333 25.5833 28.3333 24.1666H30V20L27.5 15ZM15.8333 25C15.3333 25 15 24.6666 15 24.1666C15 23.6666 15.3333 23.3333 15.8333 23.3333C16.3333 23.3333 16.6667 23.6666 16.6667 24.1666C16.6667 24.6666 16.3333 25 15.8333 25ZM22.5 22.5H17.6667C17.25 22 16.5833 21.6666 15.8333 21.6666C15.0833 21.6666 14.4167 22 14 22.5H11.6667V15H22.5V22.5ZM25.8333 25C25.3333 25 25 24.6666 25 24.1666C25 23.6666 25.3333 23.3333 25.8333 23.3333C26.3333 23.3333 26.6667 23.6666 26.6667 24.1666C26.6667 24.6666 26.3333 25 25.8333 25ZM24.1667 20V16.6666H26.6667L28.3333 20H24.1667Z" fill="white"/>
</svg>
