<svg width="40" height="40" viewBox="0 0 40 40" fill="none" xmlns="http://www.w3.org/2000/svg">
<path d="M15 25.8333H16.6667V27.5H15V25.8333ZM20 12.5L11.6667 16.6667V27.5H13.3333V20.8333H26.6667V27.5H28.3333V16.6667L20 12.5ZM16.6667 19.1667H13.3333V17.5H16.6667V19.1667ZM21.6667 19.1667H18.3333V17.5H21.6667V19.1667ZM26.6667 19.1667H23.3333V17.5H26.6667V19.1667ZM15 22.5H16.6667V24.1667H15V22.5ZM18.3333 22.5H20V24.1667H18.3333V22.5ZM18.3333 25.8333H20V27.5H18.3333V25.8333ZM21.6667 25.8333H23.3333V27.5H21.6667V25.8333Z" fill="white"/>
</svg>
