<svg width="40" height="40" viewBox="0 0 40 40" fill="none" xmlns="http://www.w3.org/2000/svg">
<path d="M0 20C0 8.95431 8.95431 0 20 0C31.0457 0 40 8.95431 40 20C40 31.0457 31.0457 40 20 40C8.95431 40 0 31.0457 0 20Z" fill="#007AFF"/>
<path d="M22.9167 21.6667H22.2583L22.025 21.4417C22.8417 20.4917 23.3333 19.2583 23.3333 17.9167C23.3333 14.925 20.9083 12.5 17.9167 12.5C14.925 12.5 12.5 14.925 12.5 17.9167C12.5 20.9083 14.925 23.3333 17.9167 23.3333C19.2583 23.3333 20.4917 22.8417 21.4417 22.025L21.6667 22.2583V22.9167L25.8333 27.075L27.075 25.8333L22.9167 21.6667ZM17.9167 21.6667C15.8417 21.6667 14.1667 19.9917 14.1667 17.9167C14.1667 15.8417 15.8417 14.1667 17.9167 14.1667C19.9917 14.1667 21.6667 15.8417 21.6667 17.9167C21.6667 19.9917 19.9917 21.6667 17.9167 21.6667Z" fill="white"/>
</svg>
