<svg width="40" height="40" viewBox="0 0 40 40" fill="none" xmlns="http://www.w3.org/2000/svg">
<path d="M17.5 19.25H22.5V20.9167H17.5V19.25Z" fill="white"/>
<path fill-rule="evenodd" clip-rule="evenodd" d="M25.9167 13L27.0833 14.4167C27.3333 14.6667 27.5 15.0833 27.5 15.5V25.9167C27.5 26.8333 26.75 27.5833 25.8333 27.5833H14.1667C13.25 27.5833 12.5 26.8333 12.5 25.9167V15.5C12.5 15.0833 12.6667 14.6667 12.9167 14.4167L14 13C14.25 12.6667 14.5833 12.5 15 12.5H24.9167C25.3333 12.5 25.6667 12.75 25.9167 13ZM24.75 14.25H15.1667L14.5 15.0833H25.4167L24.75 14.25ZM14.1667 25.9167H25.8333V16.75H14.1667V25.9167Z" fill="white"/>
</svg>
