<svg width="40" height="40" viewBox="0 0 40 40" fill="none" xmlns="http://www.w3.org/2000/svg">
<path d="M16.9989 22.9572L22.0022 16.2921L23.0015 17.0425L17.9983 23.7075L16.9989 22.9572Z" fill="white"/>
<path d="M17.9169 16.6665C17.2269 16.6665 16.6669 17.2265 16.6669 17.9165C16.6669 18.6065 17.2269 19.1665 17.9169 19.1665C18.6069 19.1665 19.1669 18.6065 19.1669 17.9165C19.1669 17.2265 18.6069 16.6665 17.9169 16.6665Z" fill="white"/>
<path d="M20.8336 22.0832C20.8336 21.3932 21.3936 20.8332 22.0836 20.8332C22.7736 20.8332 23.3336 21.3932 23.3336 22.0832C23.3336 22.7732 22.7736 23.3332 22.0836 23.3332C21.3936 23.3332 20.8336 22.7732 20.8336 22.0832Z" fill="white"/>
<path fill-rule="evenodd" clip-rule="evenodd" d="M21.9567 11.7708C22.0759 11.71 22.2211 11.6617 22.3555 11.6667C22.4898 11.6717 22.6148 11.726 22.7293 11.7969C22.8545 11.8752 22.9848 12.0004 23.0533 12.1354L24.0752 14.1406L26.2684 14.5833C26.6872 14.6658 26.9513 15.0531 26.8915 15.4948L26.5924 17.7604L28.1128 19.4531C28.4054 19.7772 28.4094 20.279 28.1128 20.5989L26.5924 22.2396L26.8915 24.5312C26.9458 24.9729 26.6381 25.3921 26.2186 25.4687L24.0752 25.8593L23.0035 27.8907C22.8599 28.1664 22.5896 28.3333 22.3056 28.3333C22.1884 28.3333 22.0692 28.3127 21.9567 28.2552L20.0127 27.2396L17.9939 28.2292C17.6063 28.4208 17.1465 28.2847 16.9471 27.8907L15.9253 25.8593L13.7569 25.4427C13.3382 25.3602 13.0491 24.9468 13.1089 24.5052L13.408 22.2396L11.8877 20.5468C11.595 20.2227 11.591 19.721 11.8877 19.401L13.408 17.7604L13.1339 15.4687C13.0796 15.0271 13.3623 14.6079 13.7819 14.5312L15.9253 14.1406L16.997 12.1094C17.2011 11.7185 17.6593 11.575 18.0437 11.7708L20.0127 12.7604L21.9567 11.7708ZM19.6638 14.4271L18.0188 13.5937L17.1465 15.2865C17.0309 15.514 16.8398 15.659 16.5982 15.7031L14.8037 16.0417L15.0529 17.9427C15.088 18.1977 15.0001 18.46 14.8286 18.6458L13.5575 20L14.8286 21.3802C15.0009 21.566 15.088 21.8283 15.0529 22.0833L14.7788 23.9583L16.5982 24.2968C16.8406 24.341 17.0309 24.486 17.1465 24.7135L17.9939 26.4062L19.6638 25.5729C19.7746 25.5162 19.8931 25.4948 20.0127 25.4948C20.1323 25.4948 20.2515 25.5171 20.3616 25.5729L21.9816 26.4062L22.8539 24.7135C22.9696 24.4868 23.1848 24.3418 23.4272 24.2968L25.1968 23.9583L24.9724 22.0833C24.9381 21.8292 25.0011 21.5643 25.1718 21.3802L25.4459 21.0937L26.4429 20.026L25.1718 18.6197C25.0003 18.4357 24.9381 18.1969 24.9724 17.9427L25.2217 16.0677L23.4272 15.7031C23.1848 15.659 22.9696 15.514 22.8539 15.2865L21.9816 13.5937L20.3616 14.4271C20.1407 14.5396 19.8847 14.5396 19.6638 14.4271Z" fill="white"/>
</svg>
