<svg width="40" height="40" viewBox="0 0 40 40" fill="none" xmlns="http://www.w3.org/2000/svg">
<path d="M28.0917 17.2583C29.1333 16.2167 28.6583 15 28.0917 14.4083L25.5917 11.9083C24.5417 10.8667 23.3333 11.3417 22.7417 11.9083L21.325 13.3333H19.1667C17.5833 13.3333 16.6667 14.1667 16.2 15.125L12.5 18.825V22.1583L11.9083 22.7417C10.8667 23.7917 11.3417 25 11.9083 25.5917L14.4083 28.0917C14.8583 28.5417 15.3417 28.7083 15.8 28.7083C16.3917 28.7083 16.9333 28.4167 17.2583 28.0917L19.5083 25.8333H22.5C23.9167 25.8333 24.6333 24.95 24.8917 24.0833C25.8333 23.8333 26.35 23.1167 26.5583 22.4167C27.85 22.0833 28.3333 20.8583 28.3333 20V17.5H27.8417L28.0917 17.2583ZM26.6667 20C26.6667 20.375 26.5083 20.8333 25.8333 20.8333H25V21.6667C25 22.0417 24.8417 22.5 24.1667 22.5H23.3333V23.3333C23.3333 23.7083 23.175 24.1667 22.5 24.1667H18.825L16.0917 26.9C15.8333 27.1417 15.6833 27 15.5917 26.9083L13.1 24.425C12.8583 24.1667 13 24.0167 13.0917 23.925L14.1667 22.8417V19.5083L15.8333 17.8417V19.1667C15.8333 20.175 16.5 21.6667 18.3333 21.6667C20.1667 21.6667 20.8333 20.175 20.8333 19.1667H26.6667V20ZM26.9083 16.075L25.4917 17.5H19.1667V19.1667C19.1667 19.5417 19.0083 20 18.3333 20C17.6583 20 17.5 19.5417 17.5 19.1667V16.6667C17.5 16.2833 17.6417 15 19.1667 15H22.0083L23.9083 13.1C24.1667 12.8583 24.3167 13 24.4083 13.0917L26.9 15.575C27.1417 15.8333 27 15.9833 26.9083 16.075Z" fill="white"/>
</svg>
