<svg width="40" height="40" viewBox="0 0 40 40" fill="none" xmlns="http://www.w3.org/2000/svg">
<path d="M22.9583 20.8333C23.5833 20.8333 24.1333 20.4917 24.4167 19.975L27.4 14.5667C27.7083 14.0167 27.3083 13.3333 26.675 13.3333H14.3417L13.5583 11.6667H10.8333V13.3333H12.5L15.5 19.6583L14.375 21.6917C13.7667 22.8083 14.5667 24.1667 15.8333 24.1667H25.8333V22.5H15.8333L16.75 20.8333H22.9583ZM15.1333 15H25.2583L22.9583 19.1667H17.1083L15.1333 15ZM15.8333 25C14.9167 25 14.175 25.75 14.175 26.6667C14.175 27.5833 14.9167 28.3333 15.8333 28.3333C16.75 28.3333 17.5 27.5833 17.5 26.6667C17.5 25.75 16.75 25 15.8333 25ZM24.1667 25C23.25 25 22.5083 25.75 22.5083 26.6667C22.5083 27.5833 23.25 28.3333 24.1667 28.3333C25.0833 28.3333 25.8333 27.5833 25.8333 26.6667C25.8333 25.75 25.0833 25 24.1667 25Z" fill="white"/>
</svg>
