<svg width="379" height="24" viewBox="0 0 379 24" fill="none" xmlns="http://www.w3.org/2000/svg">
<path d="M6.40039 0.5H372.267C373.395 0.5 374.212 0.500287 374.854 0.552734C375.41 0.598214 375.801 0.681439 376.122 0.819336L376.256 0.881836C376.832 1.17546 377.314 1.62174 377.65 2.16992L377.785 2.41113C377.961 2.75671 378.062 3.17743 378.114 3.81348C378.167 4.4554 378.167 5.27203 378.167 6.40039V17.5996C378.167 18.728 378.167 19.5446 378.114 20.1865C378.069 20.7434 377.986 21.1352 377.848 21.4561L377.785 21.5889C377.492 22.165 377.045 22.6471 376.497 22.9834L376.256 23.1182C375.91 23.2942 375.489 23.3953 374.854 23.4473C374.212 23.4997 373.395 23.5 372.267 23.5H6.40039C5.27204 23.5 4.4554 23.4997 3.81348 23.4473C3.2566 23.4018 2.8648 23.3187 2.54395 23.1807L2.41113 23.1182C1.83494 22.8246 1.35287 22.3783 1.0166 21.8301L0.881836 21.5889C0.705753 21.2433 0.604706 20.8226 0.552734 20.1865C0.500287 19.5446 0.5 18.728 0.5 17.5996V6.40039C0.5 5.27204 0.500287 4.4554 0.552734 3.81348C0.598235 3.2566 0.681269 2.8648 0.819336 2.54395L0.881836 2.41113C1.17543 1.83494 1.62172 1.35287 2.16992 1.0166L2.41113 0.881836C2.75672 0.705753 3.17741 0.604706 3.81348 0.552734C4.4554 0.500287 5.27204 0.5 6.40039 0.5Z" fill="white"/>
<path d="M6.40039 0.5H372.267C373.395 0.5 374.212 0.500287 374.854 0.552734C375.41 0.598214 375.801 0.681439 376.122 0.819336L376.256 0.881836C376.832 1.17546 377.314 1.62174 377.65 2.16992L377.785 2.41113C377.961 2.75671 378.062 3.17743 378.114 3.81348C378.167 4.4554 378.167 5.27203 378.167 6.40039V17.5996C378.167 18.728 378.167 19.5446 378.114 20.1865C378.069 20.7434 377.986 21.1352 377.848 21.4561L377.785 21.5889C377.492 22.165 377.045 22.6471 376.497 22.9834L376.256 23.1182C375.91 23.2942 375.489 23.3953 374.854 23.4473C374.212 23.4997 373.395 23.5 372.267 23.5H6.40039C5.27204 23.5 4.4554 23.4997 3.81348 23.4473C3.2566 23.4018 2.8648 23.3187 2.54395 23.1807L2.41113 23.1182C1.83494 22.8246 1.35287 22.3783 1.0166 21.8301L0.881836 21.5889C0.705753 21.2433 0.604706 20.8226 0.552734 20.1865C0.500287 19.5446 0.5 18.728 0.5 17.5996V6.40039C0.5 5.27204 0.500287 4.4554 0.552734 3.81348C0.598235 3.2566 0.681269 2.8648 0.819336 2.54395L0.881836 2.41113C1.17543 1.83494 1.62172 1.35287 2.16992 1.0166L2.41113 0.881836C2.75672 0.705753 3.17741 0.604706 3.81348 0.552734C4.4554 0.500287 5.27204 0.5 6.40039 0.5Z" stroke="#E0E0E0"/>
<path d="M10.52 11.582H15.7V12.464H10.52V11.582ZM10.632 16.104H16.526V17H9.596V7.2H16.316V8.096H10.632V16.104ZM17.4262 17L20.5342 12.968L20.5202 13.458L17.5662 9.65H18.6862L21.1082 12.8L20.6882 12.786L23.1102 9.65H24.2022L21.2202 13.5L21.2342 12.968L24.3702 17H23.2362L20.6742 13.64L21.0662 13.696L18.5462 17H17.4262ZM30.494 17V15.376L30.452 15.11V12.394C30.452 11.7687 30.2746 11.288 29.92 10.952C29.5746 10.616 29.0566 10.448 28.366 10.448C27.89 10.448 27.4373 10.5273 27.008 10.686C26.5786 10.8447 26.2146 11.0547 25.916 11.316L25.468 10.574C25.8413 10.2567 26.2893 10.014 26.812 9.846C27.3346 9.66867 27.8853 9.58 28.464 9.58C29.416 9.58 30.1486 9.818 30.662 10.294C31.1846 10.7607 31.446 11.4747 31.446 12.436V17H30.494ZM27.96 17.07C27.4093 17.07 26.9286 16.9813 26.518 16.804C26.1166 16.6173 25.8086 16.3653 25.594 16.048C25.3793 15.7213 25.272 15.348 25.272 14.928C25.272 14.5453 25.3606 14.2 25.538 13.892C25.7246 13.5747 26.0233 13.3227 26.434 13.136C26.854 12.94 27.414 12.842 28.114 12.842H30.648V13.584H28.142C27.4326 13.584 26.938 13.71 26.658 13.962C26.3873 14.214 26.252 14.5267 26.252 14.9C26.252 15.32 26.4153 15.656 26.742 15.908C27.0686 16.16 27.526 16.286 28.114 16.286C28.674 16.286 29.1546 16.16 29.556 15.908C29.9666 15.6467 30.2653 15.2733 30.452 14.788L30.676 15.474C30.4893 15.9593 30.1626 16.3467 29.696 16.636C29.2386 16.9253 28.66 17.07 27.96 17.07ZM43.3298 9.58C43.9271 9.58 44.4451 9.69667 44.8838 9.93C45.3318 10.154 45.6771 10.4993 45.9198 10.966C46.1718 11.4327 46.2978 12.0207 46.2978 12.73V17H45.3038V12.828C45.3038 12.0533 45.1171 11.47 44.7438 11.078C44.3798 10.6767 43.8618 10.476 43.1898 10.476C42.6858 10.476 42.2471 10.5833 41.8738 10.798C41.5098 11.0033 41.2251 11.3067 41.0198 11.708C40.8238 12.1 40.7258 12.576 40.7258 13.136V17H39.7318V12.828C39.7318 12.0533 39.5451 11.47 39.1718 11.078C38.7984 10.6767 38.2758 10.476 37.6038 10.476C37.1091 10.476 36.6751 10.5833 36.3018 10.798C35.9284 11.0033 35.6391 11.3067 35.4338 11.708C35.2378 12.1 35.1398 12.576 35.1398 13.136V17H34.1458V9.65H35.0978V11.638L34.9438 11.288C35.1678 10.756 35.5271 10.3407 36.0218 10.042C36.5258 9.734 37.1184 9.58 37.7998 9.58C38.5184 9.58 39.1298 9.762 39.6338 10.126C40.1378 10.4807 40.4644 11.0173 40.6138 11.736L40.2218 11.582C40.4364 10.9847 40.8144 10.504 41.3558 10.14C41.9064 9.76667 42.5644 9.58 43.3298 9.58ZM52.7874 17.07C52.1528 17.07 51.5788 16.9253 51.0654 16.636C50.5521 16.3373 50.1414 15.9127 49.8334 15.362C49.5348 14.802 49.3854 14.1207 49.3854 13.318C49.3854 12.5153 49.5348 11.8387 49.8334 11.288C50.1321 10.728 50.5381 10.3033 51.0514 10.014C51.5648 9.72467 52.1434 9.58 52.7874 9.58C53.4874 9.58 54.1128 9.73867 54.6634 10.056C55.2234 10.364 55.6621 10.8027 55.9794 11.372C56.2968 11.932 56.4554 12.5807 56.4554 13.318C56.4554 14.0647 56.2968 14.718 55.9794 15.278C55.6621 15.838 55.2234 16.2767 54.6634 16.594C54.1128 16.9113 53.4874 17.07 52.7874 17.07ZM48.9934 19.716V9.65H49.9454V11.862L49.8474 13.332L49.9874 14.816V19.716H48.9934ZM52.7174 16.188C53.2401 16.188 53.7068 16.0713 54.1174 15.838C54.5281 15.5953 54.8548 15.2593 55.0974 14.83C55.3401 14.3913 55.4614 13.8873 55.4614 13.318C55.4614 12.7487 55.3401 12.2493 55.0974 11.82C54.8548 11.3907 54.5281 11.0547 54.1174 10.812C53.7068 10.5693 53.2401 10.448 52.7174 10.448C52.1948 10.448 51.7234 10.5693 51.3034 10.812C50.8928 11.0547 50.5661 11.3907 50.3234 11.82C50.0901 12.2493 49.9734 12.7487 49.9734 13.318C49.9734 13.8873 50.0901 14.3913 50.3234 14.83C50.5661 15.2593 50.8928 15.5953 51.3034 15.838C51.7234 16.0713 52.1948 16.188 52.7174 16.188ZM58.4817 17V6.612H59.4757V17H58.4817ZM65.3635 17.07C64.5981 17.07 63.9261 16.9113 63.3475 16.594C62.7688 16.2673 62.3161 15.824 61.9895 15.264C61.6628 14.6947 61.4995 14.046 61.4995 13.318C61.4995 12.59 61.6535 11.946 61.9615 11.386C62.2788 10.826 62.7081 10.3873 63.2495 10.07C63.8001 9.74333 64.4161 9.58 65.0975 9.58C65.7881 9.58 66.3995 9.73867 66.9315 10.056C67.4728 10.364 67.8975 10.8027 68.2055 11.372C68.5135 11.932 68.6675 12.5807 68.6675 13.318C68.6675 13.3647 68.6628 13.416 68.6535 13.472C68.6535 13.5187 68.6535 13.57 68.6535 13.626H62.2555V12.884H68.1215L67.7295 13.178C67.7295 12.646 67.6128 12.1747 67.3795 11.764C67.1555 11.344 66.8475 11.0173 66.4555 10.784C66.0635 10.5507 65.6108 10.434 65.0975 10.434C64.5935 10.434 64.1408 10.5507 63.7395 10.784C63.3381 11.0173 63.0255 11.344 62.8015 11.764C62.5775 12.184 62.4655 12.6647 62.4655 13.206V13.36C62.4655 13.92 62.5868 14.4147 62.8295 14.844C63.0815 15.264 63.4268 15.5953 63.8655 15.838C64.3135 16.0713 64.8221 16.188 65.3915 16.188C65.8395 16.188 66.2548 16.1087 66.6375 15.95C67.0295 15.7913 67.3655 15.5487 67.6455 15.222L68.2055 15.866C67.8788 16.258 67.4681 16.5567 66.9735 16.762C66.4881 16.9673 65.9515 17.07 65.3635 17.07ZM78.8208 17.084C78.0834 17.084 77.4021 16.9627 76.7768 16.72C76.1514 16.468 75.6101 16.118 75.1528 15.67C74.6954 15.222 74.3361 14.6947 74.0748 14.088C73.8228 13.4813 73.6968 12.8187 73.6968 12.1C73.6968 11.3813 73.8228 10.7187 74.0748 10.112C74.3361 9.50533 74.6954 8.978 75.1528 8.53C75.6194 8.082 76.1654 7.73667 76.7908 7.494C77.4161 7.242 78.0974 7.116 78.8348 7.116C79.5441 7.116 80.2114 7.23733 80.8368 7.48C81.4621 7.71333 81.9894 8.068 82.4188 8.544L81.7608 9.202C81.3594 8.79133 80.9161 8.49733 80.4308 8.32C79.9454 8.13333 79.4228 8.04 78.8628 8.04C78.2748 8.04 77.7288 8.14267 77.2248 8.348C76.7208 8.544 76.2821 8.82867 75.9088 9.202C75.5354 9.566 75.2414 9.99533 75.0267 10.49C74.8214 10.9753 74.7188 11.512 74.7188 12.1C74.7188 12.688 74.8214 13.2293 75.0267 13.724C75.2414 14.2093 75.5354 14.6387 75.9088 15.012C76.2821 15.376 76.7208 15.6607 77.2248 15.866C77.7288 16.062 78.2748 16.16 78.8628 16.16C79.4228 16.16 79.9454 16.0667 80.4308 15.88C80.9161 15.6933 81.3594 15.3947 81.7608 14.984L82.4188 15.642C81.9894 16.118 81.4621 16.4773 80.8368 16.72C80.2114 16.9627 79.5394 17.084 78.8208 17.084ZM87.0851 17.07C86.3758 17.07 85.7365 16.9113 85.1671 16.594C84.6071 16.2673 84.1638 15.824 83.8371 15.264C83.5105 14.6947 83.3471 14.046 83.3471 13.318C83.3471 12.5807 83.5105 11.932 83.8371 11.372C84.1638 10.812 84.6071 10.3733 85.1671 10.056C85.7271 9.73867 86.3665 9.58 87.0851 9.58C87.8131 9.58 88.4571 9.73867 89.0171 10.056C89.5865 10.3733 90.0298 10.812 90.3471 11.372C90.6738 11.932 90.8371 12.5807 90.8371 13.318C90.8371 14.046 90.6738 14.6947 90.3471 15.264C90.0298 15.824 89.5865 16.2673 89.0171 16.594C88.4478 16.9113 87.8038 17.07 87.0851 17.07ZM87.0851 16.188C87.6171 16.188 88.0885 16.0713 88.4991 15.838C88.9098 15.5953 89.2318 15.2593 89.4651 14.83C89.7078 14.3913 89.8291 13.8873 89.8291 13.318C89.8291 12.7393 89.7078 12.2353 89.4651 11.806C89.2318 11.3767 88.9098 11.0453 88.4991 10.812C88.0885 10.5693 87.6218 10.448 87.0991 10.448C86.5765 10.448 86.1098 10.5693 85.6991 10.812C85.2885 11.0453 84.9618 11.3767 84.7191 11.806C84.4765 12.2353 84.3551 12.7393 84.3551 13.318C84.3551 13.8873 84.4765 14.3913 84.7191 14.83C84.9618 15.2593 85.2885 15.5953 85.6991 15.838C86.1098 16.0713 86.5718 16.188 87.0851 16.188ZM92.8665 17V9.65H93.8185V11.652L93.7205 11.302C93.9258 10.742 94.2711 10.3173 94.7565 10.028C95.2418 9.72933 95.8438 9.58 96.5625 9.58V10.546C96.5251 10.546 96.4878 10.546 96.4505 10.546C96.4131 10.5367 96.3758 10.532 96.3385 10.532C95.5638 10.532 94.9571 10.77 94.5185 11.246C94.0798 11.7127 93.8605 12.38 93.8605 13.248V17H92.8665ZM102.17 17.07C101.536 17.07 100.962 16.9253 100.448 16.636C99.9349 16.3373 99.5242 15.9127 99.2162 15.362C98.9176 14.802 98.7682 14.1207 98.7682 13.318C98.7682 12.5153 98.9176 11.8387 99.2162 11.288C99.5149 10.728 99.9209 10.3033 100.434 10.014C100.948 9.72467 101.526 9.58 102.17 9.58C102.87 9.58 103.496 9.73867 104.046 10.056C104.606 10.364 105.045 10.8027 105.362 11.372C105.68 11.932 105.838 12.5807 105.838 13.318C105.838 14.0647 105.68 14.718 105.362 15.278C105.045 15.838 104.606 16.2767 104.046 16.594C103.496 16.9113 102.87 17.07 102.17 17.07ZM98.3762 19.716V9.65H99.3282V11.862L99.2302 13.332L99.3702 14.816V19.716H98.3762ZM102.1 16.188C102.623 16.188 103.09 16.0713 103.5 15.838C103.911 15.5953 104.238 15.2593 104.48 14.83C104.723 14.3913 104.844 13.8873 104.844 13.318C104.844 12.7487 104.723 12.2493 104.48 11.82C104.238 11.3907 103.911 11.0547 103.5 10.812C103.09 10.5693 102.623 10.448 102.1 10.448C101.578 10.448 101.106 10.5693 100.686 10.812C100.276 11.0547 99.9489 11.3907 99.7062 11.82C99.4729 12.2493 99.3562 12.7487 99.3562 13.318C99.3562 13.8873 99.4729 14.3913 99.7062 14.83C99.9489 15.2593 100.276 15.5953 100.686 15.838C101.106 16.0713 101.578 16.188 102.1 16.188ZM110.861 17.07C110.151 17.07 109.512 16.9113 108.943 16.594C108.383 16.2673 107.939 15.824 107.613 15.264C107.286 14.6947 107.123 14.046 107.123 13.318C107.123 12.5807 107.286 11.932 107.613 11.372C107.939 10.812 108.383 10.3733 108.943 10.056C109.503 9.73867 110.142 9.58 110.861 9.58C111.589 9.58 112.233 9.73867 112.793 10.056C113.362 10.3733 113.805 10.812 114.123 11.372C114.449 11.932 114.613 12.5807 114.613 13.318C114.613 14.046 114.449 14.6947 114.123 15.264C113.805 15.824 113.362 16.2673 112.793 16.594C112.223 16.9113 111.579 17.07 110.861 17.07ZM110.861 16.188C111.393 16.188 111.864 16.0713 112.275 15.838C112.685 15.5953 113.007 15.2593 113.241 14.83C113.483 14.3913 113.605 13.8873 113.605 13.318C113.605 12.7393 113.483 12.2353 113.241 11.806C113.007 11.3767 112.685 11.0453 112.275 10.812C111.864 10.5693 111.397 10.448 110.875 10.448C110.352 10.448 109.885 10.5693 109.475 10.812C109.064 11.0453 108.737 11.3767 108.495 11.806C108.252 12.2353 108.131 12.7393 108.131 13.318C108.131 13.8873 108.252 14.3913 108.495 14.83C108.737 15.2593 109.064 15.5953 109.475 15.838C109.885 16.0713 110.347 16.188 110.861 16.188ZM116.642 17V9.65H117.594V11.652L117.496 11.302C117.701 10.742 118.047 10.3173 118.532 10.028C119.017 9.72933 119.619 9.58 120.338 9.58V10.546C120.301 10.546 120.263 10.546 120.226 10.546C120.189 10.5367 120.151 10.532 120.114 10.532C119.339 10.532 118.733 10.77 118.294 11.246C117.855 11.7127 117.636 12.38 117.636 13.248V17H116.642ZM126.211 17V15.376L126.169 15.11V12.394C126.169 11.7687 125.991 11.288 125.637 10.952C125.291 10.616 124.773 10.448 124.083 10.448C123.607 10.448 123.154 10.5273 122.725 10.686C122.295 10.8447 121.931 11.0547 121.633 11.316L121.185 10.574C121.558 10.2567 122.006 10.014 122.529 9.846C123.051 9.66867 123.602 9.58 124.181 9.58C125.133 9.58 125.865 9.818 126.379 10.294C126.901 10.7607 127.163 11.4747 127.163 12.436V17H126.211ZM123.677 17.07C123.126 17.07 122.645 16.9813 122.235 16.804C121.833 16.6173 121.525 16.3653 121.311 16.048C121.096 15.7213 120.989 15.348 120.989 14.928C120.989 14.5453 121.077 14.2 121.255 13.892C121.441 13.5747 121.74 13.3227 122.151 13.136C122.571 12.94 123.131 12.842 123.831 12.842H126.365V13.584H123.859C123.149 13.584 122.655 13.71 122.375 13.962C122.104 14.214 121.969 14.5267 121.969 14.9C121.969 15.32 122.132 15.656 122.459 15.908C122.785 16.16 123.243 16.286 123.831 16.286C124.391 16.286 124.871 16.16 125.273 15.908C125.683 15.6467 125.982 15.2733 126.169 14.788L126.393 15.474C126.206 15.9593 125.879 16.3467 125.413 16.636C124.955 16.9253 124.377 17.07 123.677 17.07ZM132.187 17.07C131.496 17.07 130.964 16.8833 130.591 16.51C130.217 16.1367 130.031 15.6093 130.031 14.928V8.026H131.025V14.872C131.025 15.3013 131.132 15.6327 131.347 15.866C131.571 16.0993 131.888 16.216 132.299 16.216C132.737 16.216 133.101 16.09 133.391 15.838L133.741 16.552C133.545 16.7293 133.307 16.86 133.027 16.944C132.756 17.028 132.476 17.07 132.187 17.07ZM128.715 10.476V9.65H133.265V10.476H128.715ZM135.55 17V9.65H136.544V17H135.55ZM136.054 8.026C135.849 8.026 135.676 7.956 135.536 7.816C135.396 7.676 135.326 7.508 135.326 7.312C135.326 7.116 135.396 6.95267 135.536 6.822C135.676 6.682 135.849 6.612 136.054 6.612C136.259 6.612 136.432 6.67733 136.572 6.808C136.712 6.93867 136.782 7.102 136.782 7.298C136.782 7.50333 136.712 7.676 136.572 7.816C136.441 7.956 136.269 8.026 136.054 8.026ZM142.306 17.07C141.596 17.07 140.957 16.9113 140.388 16.594C139.828 16.2673 139.384 15.824 139.058 15.264C138.731 14.6947 138.568 14.046 138.568 13.318C138.568 12.5807 138.731 11.932 139.058 11.372C139.384 10.812 139.828 10.3733 140.388 10.056C140.948 9.73867 141.587 9.58 142.306 9.58C143.034 9.58 143.678 9.73867 144.238 10.056C144.807 10.3733 145.25 10.812 145.568 11.372C145.894 11.932 146.058 12.5807 146.058 13.318C146.058 14.046 145.894 14.6947 145.568 15.264C145.25 15.824 144.807 16.2673 144.238 16.594C143.668 16.9113 143.024 17.07 142.306 17.07ZM142.306 16.188C142.838 16.188 143.309 16.0713 143.72 15.838C144.13 15.5953 144.452 15.2593 144.686 14.83C144.928 14.3913 145.05 13.8873 145.05 13.318C145.05 12.7393 144.928 12.2353 144.686 11.806C144.452 11.3767 144.13 11.0453 143.72 10.812C143.309 10.5693 142.842 10.448 142.32 10.448C141.797 10.448 141.33 10.5693 140.92 10.812C140.509 11.0453 140.182 11.3767 139.94 11.806C139.697 12.2353 139.576 12.7393 139.576 13.318C139.576 13.8873 139.697 14.3913 139.94 14.83C140.182 15.2593 140.509 15.5953 140.92 15.838C141.33 16.0713 141.792 16.188 142.306 16.188ZM151.839 9.58C152.437 9.58 152.959 9.69667 153.407 9.93C153.865 10.154 154.219 10.4993 154.471 10.966C154.733 11.4327 154.863 12.0207 154.863 12.73V17H153.869V12.828C153.869 12.0533 153.673 11.47 153.281 11.078C152.899 10.6767 152.357 10.476 151.657 10.476C151.135 10.476 150.677 10.5833 150.285 10.798C149.903 11.0033 149.604 11.3067 149.389 11.708C149.184 12.1 149.081 12.576 149.081 13.136V17H148.087V9.65H149.039V11.666L148.885 11.288C149.119 10.756 149.492 10.3407 150.005 10.042C150.519 9.734 151.13 9.58 151.839 9.58Z" fill="#0A0A0A"/>
</svg>
