<svg width="378" height="32" viewBox="0 0 378 32" fill="none" xmlns="http://www.w3.org/2000/svg">
<path d="M7.06708 0.5H370.933C372.062 0.5 372.878 0.500287 373.52 0.552734C374.077 0.598218 374.468 0.68143 374.789 0.819336L374.923 0.881836C375.499 1.17547 375.981 1.62175 376.317 2.16992L376.452 2.41113C376.628 2.75671 376.729 3.17744 376.781 3.81348C376.833 4.4554 376.834 5.27204 376.834 6.40039V25.5996C376.834 26.728 376.833 27.5446 376.781 28.1865C376.735 28.7433 376.652 29.1352 376.514 29.4561L376.452 29.5889C376.158 30.165 375.712 30.6471 375.164 30.9834L374.923 31.1182C374.577 31.2942 374.156 31.3953 373.52 31.4473C372.878 31.4997 372.062 31.5 370.933 31.5H7.06708C5.93872 31.5 5.12209 31.4997 4.48016 31.4473C3.92329 31.4018 3.53149 31.3187 3.21063 31.1807L3.07782 31.1182C2.50163 30.8246 2.01956 30.3783 1.68329 29.8301L1.54852 29.5889C1.37244 29.2433 1.27139 28.8226 1.21942 28.1865C1.16697 27.5446 1.16669 26.728 1.16669 25.5996V6.40039C1.16669 5.27204 1.16697 4.4554 1.21942 3.81348C1.26492 3.2566 1.34796 2.8648 1.48602 2.54395L1.54852 2.41113C1.84212 1.83494 2.28841 1.35287 2.83661 1.0166L3.07782 0.881836C3.4234 0.705753 3.8441 0.604706 4.48016 0.552734C5.12209 0.500287 5.93872 0.5 7.06708 0.5Z" fill="white"/>
<path d="M7.06708 0.5H370.933C372.062 0.5 372.878 0.500287 373.52 0.552734C374.077 0.598218 374.468 0.68143 374.789 0.819336L374.923 0.881836C375.499 1.17547 375.981 1.62175 376.317 2.16992L376.452 2.41113C376.628 2.75671 376.729 3.17744 376.781 3.81348C376.833 4.4554 376.834 5.27204 376.834 6.40039V25.5996C376.834 26.728 376.833 27.5446 376.781 28.1865C376.735 28.7433 376.652 29.1352 376.514 29.4561L376.452 29.5889C376.158 30.165 375.712 30.6471 375.164 30.9834L374.923 31.1182C374.577 31.2942 374.156 31.3953 373.52 31.4473C372.878 31.4997 372.062 31.5 370.933 31.5H7.06708C5.93872 31.5 5.12209 31.4997 4.48016 31.4473C3.92329 31.4018 3.53149 31.3187 3.21063 31.1807L3.07782 31.1182C2.50163 30.8246 2.01956 30.3783 1.68329 29.8301L1.54852 29.5889C1.37244 29.2433 1.27139 28.8226 1.21942 28.1865C1.16697 27.5446 1.16669 26.728 1.16669 25.5996V6.40039C1.16669 5.27204 1.16697 4.4554 1.21942 3.81348C1.26492 3.2566 1.34796 2.8648 1.48602 2.54395L1.54852 2.41113C1.84212 1.83494 2.28841 1.35287 2.83661 1.0166L3.07782 0.881836C3.4234 0.705753 3.8441 0.604706 4.48016 0.552734C5.12209 0.500287 5.93872 0.5 7.06708 0.5Z" stroke="black"/>
<path d="M7.06708 0.5H370.933C372.062 0.5 372.878 0.500287 373.52 0.552734C374.077 0.598218 374.468 0.68143 374.789 0.819336L374.923 0.881836C375.499 1.17547 375.981 1.62175 376.317 2.16992L376.452 2.41113C376.628 2.75671 376.729 3.17744 376.781 3.81348C376.833 4.4554 376.834 5.27204 376.834 6.40039V25.5996C376.834 26.728 376.833 27.5446 376.781 28.1865C376.735 28.7433 376.652 29.1352 376.514 29.4561L376.452 29.5889C376.158 30.165 375.712 30.6471 375.164 30.9834L374.923 31.1182C374.577 31.2942 374.156 31.3953 373.52 31.4473C372.878 31.4997 372.062 31.5 370.933 31.5H7.06708C5.93872 31.5 5.12209 31.4997 4.48016 31.4473C3.92329 31.4018 3.53149 31.3187 3.21063 31.1807L3.07782 31.1182C2.50163 30.8246 2.01956 30.3783 1.68329 29.8301L1.54852 29.5889C1.37244 29.2433 1.27139 28.8226 1.21942 28.1865C1.16697 27.5446 1.16669 26.728 1.16669 25.5996V6.40039C1.16669 5.27204 1.16697 4.4554 1.21942 3.81348C1.26492 3.2566 1.34796 2.8648 1.48602 2.54395L1.54852 2.41113C1.84212 1.83494 2.28841 1.35287 2.83661 1.0166L3.07782 0.881836C3.4234 0.705753 3.8441 0.604706 4.48016 0.552734C5.12209 0.500287 5.93872 0.5 7.06708 0.5Z" stroke="white" stroke-opacity="0.88"/>
<path d="M12.9647 21.084C12.2367 21.084 11.5367 20.9673 10.8647 20.734C10.202 20.4913 9.68869 20.1833 9.32469 19.81L9.73069 19.012C10.076 19.348 10.538 19.6327 11.1167 19.866C11.7047 20.09 12.3207 20.202 12.9647 20.202C13.5807 20.202 14.08 20.1273 14.4627 19.978C14.8547 19.8193 15.1394 19.6093 15.3167 19.348C15.5034 19.0867 15.5967 18.7973 15.5967 18.48C15.5967 18.0973 15.4847 17.7893 15.2607 17.556C15.046 17.3227 14.7614 17.1407 14.4067 17.01C14.052 16.87 13.66 16.7487 13.2307 16.646C12.8014 16.5433 12.372 16.436 11.9427 16.324C11.5134 16.2027 11.1167 16.044 10.7527 15.848C10.398 15.652 10.1087 15.3953 9.88469 15.078C9.67002 14.7513 9.56269 14.3267 9.56269 13.804C9.56269 13.3187 9.68869 12.8753 9.94069 12.474C10.202 12.0633 10.5987 11.7367 11.1307 11.494C11.6627 11.242 12.344 11.116 13.1747 11.116C13.7254 11.116 14.2714 11.1953 14.8127 11.354C15.354 11.5033 15.8207 11.7133 16.2127 11.984L15.8627 12.81C15.4427 12.53 14.9947 12.3247 14.5187 12.194C14.052 12.0633 13.5994 11.998 13.1607 11.998C12.5727 11.998 12.0874 12.0773 11.7047 12.236C11.322 12.3947 11.0374 12.6093 10.8507 12.88C10.6734 13.1413 10.5847 13.44 10.5847 13.776C10.5847 14.1587 10.692 14.4667 10.9067 14.7C11.1307 14.9333 11.42 15.1153 11.7747 15.246C12.1387 15.3767 12.5354 15.4933 12.9647 15.596C13.394 15.6987 13.8187 15.8107 14.2387 15.932C14.668 16.0533 15.06 16.212 15.4147 16.408C15.7787 16.5947 16.068 16.8467 16.2827 17.164C16.5067 17.4813 16.6187 17.8967 16.6187 18.41C16.6187 18.886 16.488 19.3293 16.2267 19.74C15.9654 20.1413 15.564 20.468 15.0227 20.72C14.4907 20.9627 13.8047 21.084 12.9647 21.084ZM21.788 21.07C21.0226 21.07 20.3506 20.9113 19.772 20.594C19.1933 20.2673 18.7406 19.824 18.414 19.264C18.0873 18.6947 17.924 18.046 17.924 17.318C17.924 16.59 18.078 15.946 18.386 15.386C18.7033 14.826 19.1326 14.3873 19.674 14.07C20.2246 13.7433 20.8406 13.58 21.522 13.58C22.2126 13.58 22.824 13.7387 23.356 14.056C23.8973 14.364 24.322 14.8027 24.63 15.372C24.938 15.932 25.092 16.5807 25.092 17.318C25.092 17.3647 25.0873 17.416 25.078 17.472C25.078 17.5187 25.078 17.57 25.078 17.626H18.68V16.884H24.546L24.154 17.178C24.154 16.646 24.0373 16.1747 23.804 15.764C23.58 15.344 23.272 15.0173 22.88 14.784C22.488 14.5507 22.0353 14.434 21.522 14.434C21.018 14.434 20.5653 14.5507 20.164 14.784C19.7626 15.0173 19.45 15.344 19.226 15.764C19.002 16.184 18.89 16.6647 18.89 17.206V17.36C18.89 17.92 19.0113 18.4147 19.254 18.844C19.506 19.264 19.8513 19.5953 20.29 19.838C20.738 20.0713 21.2466 20.188 21.816 20.188C22.264 20.188 22.6793 20.1087 23.062 19.95C23.454 19.7913 23.79 19.5487 24.07 19.222L24.63 19.866C24.3033 20.258 23.8926 20.5567 23.398 20.762C22.9126 20.9673 22.376 21.07 21.788 21.07ZM27.1152 21V10.612H28.1092V21H27.1152ZM33.997 21.07C33.2316 21.07 32.5596 20.9113 31.981 20.594C31.4023 20.2673 30.9496 19.824 30.623 19.264C30.2963 18.6947 30.133 18.046 30.133 17.318C30.133 16.59 30.287 15.946 30.595 15.386C30.9123 14.826 31.3416 14.3873 31.883 14.07C32.4336 13.7433 33.0496 13.58 33.731 13.58C34.4216 13.58 35.033 13.7387 35.565 14.056C36.1063 14.364 36.531 14.8027 36.839 15.372C37.147 15.932 37.301 16.5807 37.301 17.318C37.301 17.3647 37.2963 17.416 37.287 17.472C37.287 17.5187 37.287 17.57 37.287 17.626H30.889V16.884H36.755L36.363 17.178C36.363 16.646 36.2463 16.1747 36.013 15.764C35.789 15.344 35.481 15.0173 35.089 14.784C34.697 14.5507 34.2443 14.434 33.731 14.434C33.227 14.434 32.7743 14.5507 32.373 14.784C31.9716 15.0173 31.659 15.344 31.435 15.764C31.211 16.184 31.099 16.6647 31.099 17.206V17.36C31.099 17.92 31.2203 18.4147 31.463 18.844C31.715 19.264 32.0603 19.5953 32.499 19.838C32.947 20.0713 33.4556 20.188 34.025 20.188C34.473 20.188 34.8883 20.1087 35.271 19.95C35.663 19.7913 35.999 19.5487 36.279 19.222L36.839 19.866C36.5123 20.258 36.1016 20.5567 35.607 20.762C35.1216 20.9673 34.585 21.07 33.997 21.07ZM42.3762 21.07C41.6482 21.07 40.9948 20.9113 40.4162 20.594C39.8468 20.2673 39.3988 19.824 39.0722 19.264C38.7455 18.6947 38.5822 18.046 38.5822 17.318C38.5822 16.5807 38.7455 15.932 39.0722 15.372C39.3988 14.812 39.8468 14.3733 40.4162 14.056C40.9948 13.7387 41.6482 13.58 42.3762 13.58C43.0015 13.58 43.5662 13.7013 44.0702 13.944C44.5742 14.1867 44.9708 14.5507 45.2602 15.036L44.5182 15.54C44.2662 15.1667 43.9535 14.8913 43.5802 14.714C43.2068 14.5367 42.8008 14.448 42.3622 14.448C41.8395 14.448 41.3682 14.5693 40.9482 14.812C40.5282 15.0453 40.1968 15.3767 39.9542 15.806C39.7115 16.2353 39.5902 16.7393 39.5902 17.318C39.5902 17.8967 39.7115 18.4007 39.9542 18.83C40.1968 19.2593 40.5282 19.5953 40.9482 19.838C41.3682 20.0713 41.8395 20.188 42.3622 20.188C42.8008 20.188 43.2068 20.0993 43.5802 19.922C43.9535 19.7447 44.2662 19.474 44.5182 19.11L45.2602 19.614C44.9708 20.09 44.5742 20.454 44.0702 20.706C43.5662 20.9487 43.0015 21.07 42.3762 21.07ZM49.6189 21.07C48.9282 21.07 48.3962 20.8833 48.0229 20.51C47.6495 20.1367 47.4629 19.6093 47.4629 18.928V12.026H48.4569V18.872C48.4569 19.3013 48.5642 19.6327 48.7789 19.866C49.0029 20.0993 49.3202 20.216 49.7309 20.216C50.1695 20.216 50.5335 20.09 50.8229 19.838L51.1729 20.552C50.9769 20.7293 50.7389 20.86 50.4589 20.944C50.1882 21.028 49.9082 21.07 49.6189 21.07ZM46.1469 14.476V13.65H50.6969V14.476H46.1469Z" fill="#757575"/>
<path d="M359.167 14.3333L363.333 18.5L367.5 14.3333H359.167Z" fill="#424242"/>
</svg>
