<svg width="20" height="20" viewBox="0 0 20 20" fill="none" xmlns="http://www.w3.org/2000/svg">
<path d="M9.33333 14H10.6667V12.6667H9.33333V14ZM10 3.33333C6.31999 3.33333 3.33333 6.31999 3.33333 10C3.33333 13.68 6.31999 16.6667 10 16.6667C13.68 16.6667 16.6667 13.68 16.6667 10C16.6667 6.31999 13.68 3.33333 10 3.33333ZM10 15.3333C7.06 15.3333 4.66666 12.94 4.66666 10C4.66666 7.06 7.06 4.66666 10 4.66666C12.94 4.66666 15.3333 7.06 15.3333 10C15.3333 12.94 12.94 15.3333 10 15.3333ZM10 5.99999C8.52666 5.99999 7.33333 7.19333 7.33333 8.66666H8.66666C8.66666 7.93333 9.26666 7.33333 10 7.33333C10.7333 7.33333 11.3333 7.93333 11.3333 8.66666C11.3333 10 9.33333 9.83333 9.33333 12H10.6667C10.6667 10.5 12.6667 10.3333 12.6667 8.66666C12.6667 7.19333 11.4733 5.99999 10 5.99999Z" fill="#9E9E9E"/>
</svg>
