<svg width="40" height="40" viewBox="0 0 40 40" fill="none" xmlns="http://www.w3.org/2000/svg">
<path d="M22.5 17.5L23.2833 15.775L25 15L23.2833 14.225L22.5 12.5L21.7333 14.225L20 15L21.7333 15.775L22.5 17.5Z" fill="white"/>
<path d="M27.5 16.6667C26.2917 16.6667 25.6167 17.8667 25.8917 18.7583L22.9333 21.725C22.6833 21.65 22.3167 21.65 22.0667 21.725L19.9417 19.6C20.225 18.7083 19.55 17.5 18.3333 17.5C17.125 17.5 16.4417 18.7 16.725 19.6L12.925 23.3917C12.0333 23.1167 10.8333 23.7917 10.8333 25C10.8333 25.9167 11.5833 26.6667 12.5 26.6667C13.7083 26.6667 14.3833 25.4667 14.1083 24.575L17.9 20.775C18.15 20.85 18.5167 20.85 18.7667 20.775L20.8917 22.9C20.6083 23.7917 21.2833 25 22.5 25C23.7083 25 24.3917 23.8 24.1083 22.9L27.075 19.9417C27.9667 20.2167 29.1667 19.5417 29.1667 18.3333C29.1667 17.4167 28.4167 16.6667 27.5 16.6667Z" fill="white"/>
<path d="M13.3333 17.5L12.9167 19.1667L12.5 17.5L10.8333 17.0833L12.5 16.6667L12.9167 15L13.3333 16.6667L15 17.0833L13.3333 17.5Z" fill="white"/>
</svg>
