<svg width="40" height="40" viewBox="0 0 40 40" fill="none" xmlns="http://www.w3.org/2000/svg">
<path d="M25.8333 13.3333C25.8333 14.25 25.0833 15 24.1667 15C23.25 15 22.5 14.25 22.5 13.3333C22.5 12.4167 23.25 11.6667 24.1667 11.6667C25.0833 11.6667 25.8333 12.4167 25.8333 13.3333ZM27.5 17.5V23.3333H26.6667V28.3333H25V23.3333H23.3333V28.3333H21.6667V23.3333H20.8333V17.5C20.8333 16.5833 21.5833 15.8333 22.5 15.8333H25.8333C26.75 15.8333 27.5 16.5833 27.5 17.5ZM25.8333 21.6667V17.5H22.5V21.6667H25.8333ZM19.1667 21.6667H16.6667V28.3333H19.1667V21.6667ZM15 25H12.5V28.3333H15V25ZM15 14.1667L16.5 15.6667L12.3333 19.8333L13.5 21L17.6667 16.8333L19.1667 18.3333V14.1667H15Z" fill="white"/>
</svg>
