<svg width="40" height="40" viewBox="0 0 40 40" fill="none" xmlns="http://www.w3.org/2000/svg">
<path d="M24.8333 15C24.9167 14.75 25 14.5 25 14.1667C25 12.75 23.9167 11.6667 22.5 11.6667C21.4167 11.6667 20.5 12.3333 20.1667 13.3333H19.9167C19.5 12.3333 18.5833 11.6667 17.5 11.6667C16.0833 11.6667 15 12.75 15 14.1667C15 14.5 15.0833 14.75 15.1667 15H11.6667V20H12.5V25.8333C12.5 26.75 13.25 27.5 14.1667 27.5H25.8333C26.75 27.5 27.5 26.75 27.5 25.8333V20H28.3333V15H24.8333ZM22.5 13.3333C23 13.3333 23.3333 13.6667 23.3333 14.1667C23.3333 14.6667 23 15 22.5 15C22 15 21.6667 14.6667 21.6667 14.1667C21.6667 13.6667 22 13.3333 22.5 13.3333ZM17.5 13.3333C18 13.3333 18.3333 13.6667 18.3333 14.1667C18.3333 14.6667 18 15 17.5 15C17 15 16.6667 14.6667 16.6667 14.1667C16.6667 13.6667 17 13.3333 17.5 13.3333ZM19.1667 25.8333H14.1667V20H19.1667V25.8333ZM25.8333 25.8333H20.8333V20H25.8333V25.8333ZM26.6667 18.3333H13.3333V16.6667H26.6667V18.3333Z" fill="white"/>
</svg>
